<svg width="24" height="24" viewBox="0 0 24 24" fill="currentColor" xmlns="http://www.w3.org/2000/svg">
<g id="easter_egg" clip-path="url(#clip0_681_5532)">
<path id="Vector" d="M11.9005 0.000529327C14.5744 -0.0392657 17.1269 1.935 19.1248 5.26197C19.2659 5.49691 19.1334 5.80277 18.8651 5.85854C17.2807 6.18776 15.4004 6.30386 13.3373 5.90118C11.32 5.50735 9.03699 4.50214 7.09082 2.98862C6.901 2.84097 6.88065 2.56119 7.04973 2.3902C8.64813 0.773372 10.2962 0.0244064 11.9005 0.000529327ZM6.27321 3.4796C6.363 3.47735 6.45415 3.50529 6.53007 3.56518C6.83811 3.80817 7.16513 4.04764 7.52743 4.29018C7.62846 4.35783 7.64789 4.50059 7.5652 4.58978C6.67001 5.55487 7.0634 7.18453 8.37471 7.59085C8.75335 7.70812 9.15097 7.69983 9.51592 7.57387C10.0034 8.45122 11.0905 8.77709 11.9811 8.31116C12.559 9.40081 13.9962 9.61767 14.876 8.78329C15.8155 9.84522 17.583 9.47933 18.0085 8.10622C18.1177 7.75351 18.1175 7.38789 18.019 7.04962C17.9848 6.9322 18.0587 6.81085 18.1796 6.79276C18.634 6.72481 19.0691 6.63879 19.4827 6.53981C19.6653 6.49614 19.8534 6.58412 19.9359 6.75265C20.4967 7.89612 20.9514 9.09316 21.2772 10.2708C21.3208 10.4283 21.2648 10.5959 21.1357 10.6962C15.4244 15.1362 8.04622 15.7186 2.4397 13.3564C2.27731 13.288 2.17753 13.122 2.19592 12.9468C2.31689 11.7924 2.60205 10.5395 3.02006 9.28822C3.11555 9.00237 3.48102 8.92355 3.68933 9.14145C4.99569 10.508 6.69745 11.4503 8.58716 11.8083C8.8137 11.8509 9.03103 11.6943 9.05871 11.462C9.08369 11.2522 8.93281 11.0604 8.72525 11.0208C6.70053 10.6345 4.9504 9.52002 3.73374 7.97418C3.643 7.85886 3.62145 7.70291 3.67996 7.5683C4.28725 6.17106 5.05591 4.81633 5.96854 3.63359C6.04448 3.53517 6.15777 3.48248 6.27321 3.4796ZM8.51894 4.95359C8.5796 4.95676 8.64004 4.97355 8.69548 5.00443C11.1964 6.39683 13.8968 7.10244 16.8291 6.93261C17.0006 6.92266 17.1593 7.02552 17.2217 7.18556C17.5323 7.98281 16.7812 8.81416 15.9442 8.55503C15.6369 8.4598 15.3948 8.23201 15.2801 7.93017C15.1558 7.60284 14.6967 7.58131 14.5453 7.90089C14.3256 8.36422 13.7897 8.59895 13.2993 8.447C12.9187 8.32913 12.6355 7.99807 12.5779 7.60353C12.5295 7.27181 12.1167 7.14348 11.8888 7.39001C11.3264 7.99834 10.3117 7.73766 10.1145 6.93046C10.0484 6.66019 9.73265 6.53845 9.50216 6.69439C9.23884 6.87262 8.91401 6.92095 8.61126 6.82721C7.83209 6.58578 7.62694 5.58063 8.23642 5.0504C8.31621 4.98098 8.41784 4.9483 8.51894 4.95359ZM11.0698 11.1404C11.0564 11.1401 11.0428 11.1405 11.029 11.1415C10.9741 11.1461 10.9157 11.1505 10.8542 11.1543C10.6339 11.1682 10.4666 11.358 10.4804 11.5784C10.4942 11.7987 10.6841 11.9661 10.9043 11.9522C10.9716 11.948 11.0353 11.9433 11.0953 11.9384C11.3153 11.9201 11.4789 11.7269 11.4606 11.5068C11.4434 11.3005 11.2719 11.1447 11.0698 11.1404ZM21.283 11.6899C21.464 11.6943 21.6346 11.8222 21.6682 12.0221C22.0152 14.0905 21.9064 16.0325 21.0843 17.9757C21.0447 18.0693 20.9699 18.144 20.8768 18.1846C18.3359 19.2928 15.7033 19.9486 13.0187 20.1325C12.8043 20.1472 12.6285 20.3216 12.6312 20.5364C12.634 20.7698 12.8322 20.9466 13.0579 20.931C15.3744 20.774 17.6514 20.2782 19.8701 19.4531C20.0532 19.385 20.2151 19.5943 20.1036 19.7548C18.3286 22.3096 15.3749 24 11.9931 24C6.75421 24 2.44707 19.8925 2.14703 14.7133C2.13024 14.4238 2.419 14.2149 2.68992 14.3183C3.54943 14.6465 4.4239 14.903 5.32698 15.0954C5.4529 15.1222 5.52125 15.2612 5.46429 15.3766C4.73314 16.8583 5.87597 18.6435 7.58101 18.5337C8.08277 18.5012 8.54832 18.3017 8.91233 17.9719C9.86173 18.8342 11.3168 18.7077 12.1099 17.7213C13.2439 18.8082 15.0711 18.3923 15.6632 16.9847C16.036 17.2031 16.4681 17.3075 16.9131 17.2789C18.1228 17.2006 19.0434 16.1527 18.965 14.943C18.9334 14.4529 18.7375 13.9968 18.4254 13.6391C18.3412 13.5426 18.3721 13.3916 18.486 13.333C19.4431 12.8404 20.2948 12.3036 21.0414 11.7653C21.1162 11.7115 21.2007 11.6879 21.283 11.6899ZM17.3751 13.895C17.4613 13.893 17.547 13.9185 17.6175 13.9723C17.9346 14.2144 18.1408 14.5858 18.1672 14.9946C18.217 15.7644 17.6313 16.4312 16.8615 16.4811C16.4294 16.5091 16.0154 16.339 15.7262 16.0147C15.4923 15.7524 15.0566 15.8992 15.0294 16.2497C14.976 16.9379 14.4152 17.4906 13.7252 17.5352C13.1902 17.5707 12.6751 17.2896 12.4131 16.8215C12.2495 16.529 11.8181 16.5565 11.6932 16.8681C11.2793 17.9018 9.8784 18.0639 9.24189 17.1429C9.08249 16.9124 8.74409 16.9144 8.5855 17.141C8.34012 17.4915 7.9552 17.7084 7.52929 17.736C6.3341 17.8138 5.59969 16.4414 6.33089 15.4872C6.41848 15.3729 6.56122 15.316 6.70387 15.3356C10.167 15.8093 13.8438 15.374 17.2225 13.9283C17.2714 13.9074 17.3234 13.8963 17.3751 13.895ZM9.20978 20.0841C9.00734 20.0856 8.83472 20.2408 8.81552 20.4469C8.79503 20.6667 8.95665 20.8614 9.1765 20.8819C9.87817 20.9472 10.6496 20.9801 10.8795 20.9801C11.096 20.9801 11.274 20.8071 11.279 20.5896C11.2841 20.3689 11.1092 20.1859 10.8885 20.1808C10.3446 20.1683 9.7935 20.1363 9.25057 20.0858C9.23685 20.0845 9.22327 20.084 9.20978 20.0841Z" fill="currentColor"/>
</g>
<defs>
<clipPath id="clip0_681_5532">
<rect width="24" height="24" fill="currentColor" transform="matrix(-1 0 0 1 24 0)"/>
</clipPath>
</defs>
</svg>
